<svg xmlns="http://www.w3.org/2000/svg" viewBox="0 0 2005.79 363.33"><defs><style>.cls-1{fill:#fff;}</style></defs><g id="Layer_2" data-name="Layer 2"><g id="Layer_1-2" data-name="Layer 1"><path class="cls-1" d="M495,363.33c-3.94-2-8.31-1.45-12.43-1.81-23.3-2.07-45.87-7.07-67.13-16.84-49.49-22.74-81.26-60.06-91.08-114-6.73-37-4.31-73.56,10.74-108.57,11.79-27.44,31.18-48.52,56.1-64.75,26.07-17,55-26.18,85.61-29.54,40.33-4.41,80.29-2.2,119.16,10.56,31.66,10.38,58.38,28.22,78.85,54.5,15.28,19.61,24.32,42.13,28.33,66.71,4.78,29.31,4.21,58.42-3.6,87.12-9.77,35.88-30.89,63.59-62.24,83.65-24.36,15.59-51.11,24.6-79.57,29a232.19,232.19,0,0,1-30.23,3,1.42,1.42,0,0,0-1.52,1ZM516,96.27c-19.16.46-36.82,1.87-54,7-27.18,8.14-46.32,24.71-53.8,52.59a146.88,146.88,0,0,0-.88,73.24c7.12,29.6,25.71,48.42,55.24,56.68,13.69,3.83,27.59,5.38,41.72,6.17,19.56,1.1,38.85-.24,57.73-5.41,28.68-7.85,49.1-24.84,57.13-54.19a140.93,140.93,0,0,0,.35-73.66c-6.07-23.34-19.9-40.71-42.18-51C557.38,98.57,536.1,97,516,96.27Z"/><path class="cls-1" d="M2005.79,174q-14.4,43.71-28.79,87.41c-9.16,27.85-18.48,55.64-27.37,83.57-2.56,8-8.08,11.88-15.64,12.16-15.94.59-31.93,1.59-47.84-.73-4.8-.7-8.37-2.83-10.24-7.51-4.68-11.69-8.17-23.78-12.13-35.71q-21.42-64.6-42.75-129.25c-1.08-3.29-1.94-6.67-2.8-10-1.78-7,1.47-11.63,8.73-12.48a141.54,141.54,0,0,1,32.85,0c6.2.71,9.83,3.74,11.67,9.75q19.74,64.38,39.77,128.65c.62,2,.26,4.35,2.18,6.55,4.81-15.83,9.54-31.27,14.21-46.74q13.63-45.2,27.18-90.4a9.55,9.55,0,0,1,7.59-7.08,103,103,0,0,1,36.22-.31c3,.49,4.82,2.74,7.16,4.21Z"/><path class="cls-1" d="M159.86,132.14c-17.92-22.58-42.38-31.61-70.2-34.07-14.44-1.27-28.88-.1-43.3-.77C30.8,96.58,15.21,96.24,0,92.3V1.62C4.08,0,8.15,1.5,12.13,2,31.81,4.23,51.51,4.54,71.32,4.34,94,4.12,116.71,5.78,137.91,15.52a107.54,107.54,0,0,1,22.16,14.13c-.15,13.27-.67,26.55-.37,39.81C160.16,90.36,159.9,111.25,159.86,132.14Z"/><path class="cls-1" d="M1222.83,356.07c-37.65,0-75.31-.06-113,.09-4.25,0-5.42-.53-4-5.07q9.28-29.25,17.86-58.71c1.25-4.29,2.79-5.92,7.65-5.9q100.47.31,200.95.12c9.63,0,19-1.3,26.34-8.35,15.38-14.78,10.25-39-9.8-46.35a51.82,51.82,0,0,0-18.07-3c-39.65,0-79.31.4-119-.23-25.91-.4-50.21-7.29-70.82-23.76-38.59-30.84-46.88-81-23.9-120.29,15.21-26,39.14-41.22,68.43-48a158.07,158.07,0,0,1,35.61-3.87q107.22-.12,214.44,0c5.94,0,5.86,0,4.18,5.5-6,19.88-12.09,39.75-18,59.69-1,3.42-2.52,4.51-6.16,4.51q-98-.18-195.94,0c-8.64,0-16.88,1.9-23.37,8-8.75,8.26-11.63,18.56-8.1,29.94,3.45,11.1,12.59,16.13,23.24,18.73a47.56,47.56,0,0,0,11.39,1.12c37.65-.07,75.31-.24,113,0,22.5.16,44.4,3.93,63.92,15.8,27.58,16.76,45.13,40.43,48.14,73.32q4.63,50.63-35.46,82.22c-16.71,13.23-35.88,20.15-56.8,23-12.08,1.63-24.21,1.65-36.35,1.65Q1271.07,356.05,1222.83,356.07Z"/><path class="cls-1" d="M1084.11,356.07c-29.19,0-58.18,0-87.16.06-2.75,0-4.12-1.26-5.55-3.34-21.44-31.1-43-62.12-64.39-93.26-2.67-3.89-5.35-5.72-10.43-5.67-30.15.3-60.32.23-90.48,0-4.07,0-5.31.9-5.29,5.12.19,30.72,0,61.44.19,92.16,0,3.87-.93,5-4.92,5q-34.25-.3-68.49,0c-3.64,0-4.77-.79-4.76-4.63q.2-99.13,0-198.28c0-3.53,1.06-4.7,4.43-5.57,23.39-6.06,46.74-12.26,70-18.78,3.9-1.09,3.69.27,3.68,3-.06,16.11.13,32.22-.14,48.32-.06,4.1,1.28,4.82,5,4.81,42.83-.12,85.66-.07,128.48-.07,21,0,31.71-7.73,36.92-28.13,3.84-15.06,3.26-30-7.1-42.83-6.39-8-15-11.74-25.19-11.74q-105,0-210,0h-6.05c3.19-10.69,6.24-21,9.37-31.31,3.49-11.53,7.22-23,10.48-34.59.87-3.09,2.22-3.77,5.15-3.76,64.16.07,128.31-.18,192.47.16,26.62.14,51.5,6.61,72.59,24,20,16.45,33.52,37.09,39.28,62.24,6.14,26.87,4.45,53.28-8.3,78.24-11.54,22.58-29.39,38.46-53,47.94-6.21,2.5-6.2,2.39-2.15,7.86q36.73,49.55,73.42,99.11C1083,353.15,1084.2,354,1084.11,356.07Z"/><path class="cls-1" d="M1493.76,194.29c0-52.13.07-104.26-.12-156.39,0-4.57,1.29-5.4,5.55-5.36,22.65.21,45.31.17,68,0,3.42,0,4.48.8,4.48,4.36q-.15,157.14,0,314.29c0,4-1.22,5-5.08,5q-34-.26-68,0c-4,0-4.93-1.11-4.92-5Q1493.88,272.74,1493.76,194.29Z"/><path class="cls-1" d="M1730.32,271.91h-50.49c-7.42,0-7.57,0-7,7.29.7,9.88,2.9,19.3,9.29,27.3,10.42,13.09,24.8,16.51,40.52,16.21,18.08-.35,35.79-2.84,52.37-10.68a21.06,21.06,0,0,1,4.27-1.37c6.4-1.48,8.77.26,9.86,6.74a62.31,62.31,0,0,1-.06,22.7c-.75,3.83-2.44,6.68-6.13,8.4-13.56,6.34-28,9.57-42.7,11.46-17.73,2.29-35.55,3-53.07-1.57-34.48-9.05-55.37-24-63.6-63.57-5.21-25-5.53-50.28,2.36-74.78,11.8-36.62,39.55-60.68,79.48-62.28,17-.68,33.44.8,49.28,7.65,15.06,6.53,25.49,17.47,33.36,31.52,6.69,11.93,9.28,24.75,9.76,38.13.27,7.46.34,14.94.06,22.39-.38,10-5.1,14.43-15,14.45C1765.3,272,1747.81,271.91,1730.32,271.91Zm-20-32.79c11.47,0,23-.09,34.42,0,3.1,0,4.39-.56,4.21-4.07a73.25,73.25,0,0,0-2.16-14.71c-6.63-25.64-35.72-35.75-57.09-19.92-11.42,8.46-15.56,20.5-17.13,33.94-.43,3.68.42,4.88,4.32,4.8C1688.05,239,1699.19,239.12,1710.34,239.12Z"/><path class="cls-1" d="M119.27,239c0-38.15,0-76.3-.08-114.45,0-4,.75-4.86,4.66-3.3,13.38,5.31,25.44,12.38,33.88,24.37,2.31,3.27,3.84,3.3,6.12.1,8.41-11.73,20.05-19.09,33.29-24.38,3.94-1.57,5-1.21,4.92,3.25Q201.39,200,201,275.48c-.15,25.23-.21,50.47-.31,75.7,0,7.38,0,7.39-7.14,7.38l-66.74,0c-3.34,0-5,0-5.89-.86-1.82-1.81-1-5.32-.87-6.08C121.2,345.66,120.84,306.25,119.27,239Z"/><path class="cls-1" d="M159.86,132.14c0-20.89.3-41.78-.16-62.68-.3-13.26.22-26.54.37-39.81C178.37,13.47,200.3,6.81,224.2,4.4c15.31-1.54,30.56-.93,45.84-.8S300.58,1.75,315.78.11C320-.35,321,.59,321,4.57c-.13,27.2-.2,54.4,0,81.6,0,3.92-1.13,5.4-4.86,6.2-14.58,3.15-29.39,3.3-44.16,3.86-17.11.65-34.29-.92-51.32,2-16.25,2.78-31.45,8.06-44.67,18.22-5.07,3.9-8.63,9.14-12.82,13.83C162.42,131.12,162.16,133.73,159.86,132.14Z"/></g></g></svg>